<mxfile host="65bd71144e">
    <diagram id="tr8WCDj-hul7nBdrf4UF" name="Страница 1">
        <mxGraphModel dx="611" dy="615" grid="1" gridSize="10" guides="1" tooltips="1" connect="0" arrows="1" fold="1" page="1" pageScale="1" pageWidth="827" pageHeight="1169" math="0" shadow="0">
            <root>
                <mxCell id="0"/>
                <mxCell id="1" parent="0"/>
                <mxCell id="2" style="edgeStyle=orthogonalEdgeStyle;rounded=0;orthogonalLoop=1;jettySize=auto;html=1;" parent="1" source="3" edge="1">
                    <mxGeometry relative="1" as="geometry">
                        <mxPoint x="375" y="150" as="targetPoint"/>
                    </mxGeometry>
                </mxCell>
                <mxCell id="3" value="Запуск" style="rounded=1;whiteSpace=wrap;html=1;arcSize=50;" parent="1" vertex="1">
                    <mxGeometry x="305" y="20" width="140" height="40" as="geometry"/>
                </mxCell>
                <mxCell id="5" value="#include &amp;lt;iostream&amp;gt;&lt;br&gt;#include &amp;lt;stdarg.h&amp;gt;&lt;br&gt;using namespace std;" style="strokeWidth=2;html=1;shape=mxgraph.flowchart.annotation_2;align=left;labelPosition=right;pointerEvents=1;" parent="1" vertex="1">
                    <mxGeometry x="458.01" y="40" width="20" height="80" as="geometry"/>
                </mxCell>
                <mxCell id="6" value="" style="endArrow=none;dashed=1;html=1;entryX=0;entryY=0.5;entryDx=0;entryDy=0;entryPerimeter=0;" parent="1" target="5" edge="1">
                    <mxGeometry width="50" height="50" relative="1" as="geometry">
                        <mxPoint x="375" y="80" as="sourcePoint"/>
                        <mxPoint x="465" y="70" as="targetPoint"/>
                    </mxGeometry>
                </mxCell>
                <mxCell id="7" value="Конец" style="rounded=1;whiteSpace=wrap;html=1;arcSize=50;" parent="1" vertex="1">
                    <mxGeometry x="305" y="2670" width="140" height="40" as="geometry"/>
                </mxCell>
                <mxCell id="10" value="return 0;&lt;br&gt;}" style="strokeWidth=2;html=1;shape=mxgraph.flowchart.annotation_2;align=left;labelPosition=right;pointerEvents=1;" parent="1" vertex="1">
                    <mxGeometry x="476.75" y="2620" width="20" height="60" as="geometry"/>
                </mxCell>
                <mxCell id="11" value="" style="endArrow=none;dashed=1;html=1;entryX=0;entryY=0.5;entryDx=0;entryDy=0;entryPerimeter=0;" parent="1" edge="1">
                    <mxGeometry width="50" height="50" relative="1" as="geometry">
                        <mxPoint x="376.75" y="2650" as="sourcePoint"/>
                        <mxPoint x="476.75" y="2650" as="targetPoint"/>
                    </mxGeometry>
                </mxCell>
                <mxCell id="383" value="" style="edgeStyle=orthogonalEdgeStyle;html=1;rounded=0;" edge="1" parent="1" source="354" target="382">
                    <mxGeometry relative="1" as="geometry"/>
                </mxCell>
                <mxCell id="354" value="int main() {" style="ellipse;whiteSpace=wrap;html=1;" parent="1" vertex="1">
                    <mxGeometry x="315" y="150" width="120" height="60" as="geometry"/>
                </mxCell>
                <mxCell id="403" value="" style="edgeStyle=orthogonalEdgeStyle;rounded=0;html=1;" edge="1" parent="1" source="355" target="402">
                    <mxGeometry relative="1" as="geometry"/>
                </mxCell>
                <mxCell id="355" value="cout &amp;lt;&amp;lt; &quot;Start:&quot;;" style="shape=parallelogram;perimeter=parallelogramPerimeter;whiteSpace=wrap;html=1;fixedSize=1;" parent="1" vertex="1">
                    <mxGeometry x="265" y="970" width="220" height="40" as="geometry"/>
                </mxCell>
                <mxCell id="369" style="edgeStyle=orthogonalEdgeStyle;rounded=0;html=1;" parent="1" source="359" target="368" edge="1">
                    <mxGeometry relative="1" as="geometry"/>
                </mxCell>
                <mxCell id="359" value="&lt;div&gt;void obmen(int **arr, int stolb, int str1, int str2)&lt;/div&gt;" style="ellipse;whiteSpace=wrap;html=1;" parent="1" vertex="1">
                    <mxGeometry x="733.5" y="150" width="227" height="70" as="geometry"/>
                </mxCell>
                <mxCell id="367" style="edgeStyle=orthogonalEdgeStyle;rounded=0;html=1;" parent="1" target="7" edge="1">
                    <mxGeometry relative="1" as="geometry">
                        <mxPoint x="375" y="2600" as="sourcePoint"/>
                    </mxGeometry>
                </mxCell>
                <mxCell id="454" value="" style="edgeStyle=orthogonalEdgeStyle;rounded=0;html=1;" edge="1" parent="1" source="368" target="374">
                    <mxGeometry relative="1" as="geometry"/>
                </mxCell>
                <mxCell id="368" value="int tmp;" style="rounded=0;whiteSpace=wrap;html=1;" parent="1" vertex="1">
                    <mxGeometry x="787" y="250" width="120" height="40" as="geometry"/>
                </mxCell>
                <mxCell id="377" value="1" style="edgeStyle=orthogonalEdgeStyle;rounded=0;html=1;" parent="1" source="374" target="376" edge="1">
                    <mxGeometry relative="1" as="geometry"/>
                </mxCell>
                <mxCell id="374" value="for (int j = 0; j &amp;lt; i; j++)" style="shape=hexagon;perimeter=hexagonPerimeter2;whiteSpace=wrap;html=1;fixedSize=1;" parent="1" vertex="1">
                    <mxGeometry x="767" y="330" width="160" height="50" as="geometry"/>
                </mxCell>
                <mxCell id="378" style="edgeStyle=orthogonalEdgeStyle;rounded=0;html=1;entryX=-0.006;entryY=0.5;entryDx=0;entryDy=0;entryPerimeter=0;" parent="1" target="374" edge="1">
                    <mxGeometry relative="1" as="geometry">
                        <Array as="points">
                            <mxPoint x="845" y="640"/>
                            <mxPoint x="720" y="640"/>
                            <mxPoint x="720" y="355"/>
                        </Array>
                        <mxPoint x="845" y="580" as="sourcePoint"/>
                    </mxGeometry>
                </mxCell>
                <mxCell id="452" style="edgeStyle=orthogonalEdgeStyle;rounded=0;html=1;" edge="1" parent="1" source="376" target="449">
                    <mxGeometry relative="1" as="geometry"/>
                </mxCell>
                <mxCell id="376" value="tmp = arr[str1][i];" style="rounded=0;whiteSpace=wrap;html=1;" parent="1" vertex="1">
                    <mxGeometry x="768.5" y="410" width="157" height="50" as="geometry"/>
                </mxCell>
                <mxCell id="385" value="" style="edgeStyle=orthogonalEdgeStyle;rounded=0;html=1;" edge="1" parent="1" source="382" target="384">
                    <mxGeometry relative="1" as="geometry"/>
                </mxCell>
                <mxCell id="382" value="int n = 5;" style="rounded=0;whiteSpace=wrap;html=1;" vertex="1" parent="1">
                    <mxGeometry x="315" y="250" width="120" height="40" as="geometry"/>
                </mxCell>
                <mxCell id="387" value="" style="edgeStyle=orthogonalEdgeStyle;rounded=0;html=1;" edge="1" parent="1" source="384" target="386">
                    <mxGeometry relative="1" as="geometry"/>
                </mxCell>
                <mxCell id="384" value="int m = 5;" style="rounded=0;whiteSpace=wrap;html=1;" vertex="1" parent="1">
                    <mxGeometry x="315" y="320" width="120" height="40" as="geometry"/>
                </mxCell>
                <mxCell id="389" value="" style="edgeStyle=orthogonalEdgeStyle;rounded=0;html=1;" edge="1" parent="1" source="386" target="388">
                    <mxGeometry relative="1" as="geometry"/>
                </mxCell>
                <mxCell id="386" value="int** a = new int* [n];" style="rounded=0;whiteSpace=wrap;html=1;" vertex="1" parent="1">
                    <mxGeometry x="315" y="390" width="120" height="40" as="geometry"/>
                </mxCell>
                <mxCell id="391" value="1" style="edgeStyle=orthogonalEdgeStyle;rounded=0;html=1;" edge="1" parent="1" source="388" target="390">
                    <mxGeometry relative="1" as="geometry"/>
                </mxCell>
                <mxCell id="394" value="0" style="edgeStyle=orthogonalEdgeStyle;rounded=0;html=1;" edge="1" parent="1" source="388" target="393">
                    <mxGeometry x="-0.8551" relative="1" as="geometry">
                        <Array as="points">
                            <mxPoint x="500" y="485"/>
                            <mxPoint x="500" y="630"/>
                            <mxPoint x="375" y="630"/>
                        </Array>
                        <mxPoint as="offset"/>
                    </mxGeometry>
                </mxCell>
                <mxCell id="388" value="for (int i = 0; i &amp;lt; n; i++)" style="shape=hexagon;perimeter=hexagonPerimeter2;whiteSpace=wrap;html=1;fixedSize=1;" vertex="1" parent="1">
                    <mxGeometry x="295" y="460" width="160" height="50" as="geometry"/>
                </mxCell>
                <mxCell id="392" style="edgeStyle=orthogonalEdgeStyle;rounded=0;html=1;entryX=0.006;entryY=0.5;entryDx=0;entryDy=0;entryPerimeter=0;" edge="1" parent="1" source="390" target="388">
                    <mxGeometry relative="1" as="geometry">
                        <Array as="points">
                            <mxPoint x="375" y="610"/>
                            <mxPoint x="260" y="610"/>
                            <mxPoint x="260" y="485"/>
                        </Array>
                    </mxGeometry>
                </mxCell>
                <mxCell id="390" value="a[i] = new int[m];" style="rounded=0;whiteSpace=wrap;html=1;" vertex="1" parent="1">
                    <mxGeometry x="315" y="550" width="120" height="40" as="geometry"/>
                </mxCell>
                <mxCell id="396" value="1" style="edgeStyle=orthogonalEdgeStyle;rounded=0;html=1;" edge="1" parent="1" source="393" target="395">
                    <mxGeometry relative="1" as="geometry"/>
                </mxCell>
                <mxCell id="401" value="0" style="edgeStyle=orthogonalEdgeStyle;rounded=0;html=1;" edge="1" parent="1" source="393" target="355">
                    <mxGeometry x="-0.8252" relative="1" as="geometry">
                        <Array as="points">
                            <mxPoint x="530" y="685"/>
                            <mxPoint x="530" y="950"/>
                            <mxPoint x="375" y="950"/>
                        </Array>
                        <mxPoint as="offset"/>
                    </mxGeometry>
                </mxCell>
                <mxCell id="393" value="for (int i = 0; i &amp;lt; n; i++)" style="shape=hexagon;perimeter=hexagonPerimeter2;whiteSpace=wrap;html=1;fixedSize=1;" vertex="1" parent="1">
                    <mxGeometry x="295" y="660" width="160" height="50" as="geometry"/>
                </mxCell>
                <mxCell id="398" value="1" style="edgeStyle=orthogonalEdgeStyle;rounded=0;html=1;" edge="1" parent="1" source="395" target="397">
                    <mxGeometry relative="1" as="geometry"/>
                </mxCell>
                <mxCell id="400" value="0" style="edgeStyle=orthogonalEdgeStyle;rounded=0;html=1;entryX=0;entryY=0.52;entryDx=0;entryDy=0;entryPerimeter=0;" edge="1" parent="1" source="395" target="393">
                    <mxGeometry x="-0.8946" relative="1" as="geometry">
                        <Array as="points">
                            <mxPoint x="490" y="775"/>
                            <mxPoint x="490" y="930"/>
                            <mxPoint x="230" y="930"/>
                            <mxPoint x="230" y="686"/>
                        </Array>
                        <mxPoint as="offset"/>
                    </mxGeometry>
                </mxCell>
                <mxCell id="395" value="for (int j = 0; j &amp;lt; m; j++)" style="shape=hexagon;perimeter=hexagonPerimeter2;whiteSpace=wrap;html=1;fixedSize=1;" vertex="1" parent="1">
                    <mxGeometry x="295" y="750" width="160" height="50" as="geometry"/>
                </mxCell>
                <mxCell id="399" style="edgeStyle=orthogonalEdgeStyle;rounded=0;html=1;entryX=0.006;entryY=0.52;entryDx=0;entryDy=0;entryPerimeter=0;" edge="1" parent="1" source="397" target="395">
                    <mxGeometry relative="1" as="geometry">
                        <Array as="points">
                            <mxPoint x="375" y="900"/>
                            <mxPoint x="260" y="900"/>
                            <mxPoint x="260" y="776"/>
                        </Array>
                    </mxGeometry>
                </mxCell>
                <mxCell id="397" value="a[i][j] = rand() % 100;" style="rounded=0;whiteSpace=wrap;html=1;" vertex="1" parent="1">
                    <mxGeometry x="315" y="840" width="120" height="40" as="geometry"/>
                </mxCell>
                <mxCell id="405" value="1" style="edgeStyle=orthogonalEdgeStyle;rounded=0;html=1;" edge="1" parent="1" source="402" target="404">
                    <mxGeometry relative="1" as="geometry"/>
                </mxCell>
                <mxCell id="413" value="0" style="edgeStyle=orthogonalEdgeStyle;rounded=0;html=1;" edge="1" parent="1" source="402" target="412">
                    <mxGeometry x="-0.9225" relative="1" as="geometry">
                        <Array as="points">
                            <mxPoint x="550" y="1065"/>
                            <mxPoint x="550" y="1420"/>
                            <mxPoint x="375" y="1420"/>
                        </Array>
                        <mxPoint as="offset"/>
                    </mxGeometry>
                </mxCell>
                <mxCell id="402" value="for (int i = 0; i &amp;lt; n; i++)" style="shape=hexagon;perimeter=hexagonPerimeter2;whiteSpace=wrap;html=1;fixedSize=1;" vertex="1" parent="1">
                    <mxGeometry x="295" y="1040" width="160" height="50" as="geometry"/>
                </mxCell>
                <mxCell id="407" value="" style="edgeStyle=orthogonalEdgeStyle;rounded=0;html=1;" edge="1" parent="1" source="404" target="406">
                    <mxGeometry relative="1" as="geometry"/>
                </mxCell>
                <mxCell id="404" value="cout &amp;lt;&amp;lt; endl;" style="shape=parallelogram;perimeter=parallelogramPerimeter;whiteSpace=wrap;html=1;fixedSize=1;" vertex="1" parent="1">
                    <mxGeometry x="265" y="1129" width="220" height="40" as="geometry"/>
                </mxCell>
                <mxCell id="409" value="1" style="edgeStyle=orthogonalEdgeStyle;rounded=0;html=1;" edge="1" parent="1" source="406" target="408">
                    <mxGeometry relative="1" as="geometry"/>
                </mxCell>
                <mxCell id="411" style="edgeStyle=orthogonalEdgeStyle;rounded=0;html=1;entryX=0.006;entryY=0.52;entryDx=0;entryDy=0;entryPerimeter=0;" edge="1" parent="1" source="406" target="402">
                    <mxGeometry relative="1" as="geometry">
                        <Array as="points">
                            <mxPoint x="510" y="1235"/>
                            <mxPoint x="510" y="1400"/>
                            <mxPoint x="210" y="1400"/>
                            <mxPoint x="210" y="1066"/>
                        </Array>
                    </mxGeometry>
                </mxCell>
                <mxCell id="406" value="for (int j = 0; j &amp;lt; m; j++)" style="shape=hexagon;perimeter=hexagonPerimeter2;whiteSpace=wrap;html=1;fixedSize=1;" vertex="1" parent="1">
                    <mxGeometry x="295" y="1210" width="160" height="50" as="geometry"/>
                </mxCell>
                <mxCell id="410" style="edgeStyle=orthogonalEdgeStyle;rounded=0;html=1;entryX=0.006;entryY=0.52;entryDx=0;entryDy=0;entryPerimeter=0;" edge="1" parent="1" source="408" target="406">
                    <mxGeometry relative="1" as="geometry">
                        <Array as="points">
                            <mxPoint x="375" y="1370"/>
                            <mxPoint x="240" y="1370"/>
                            <mxPoint x="240" y="1236"/>
                        </Array>
                    </mxGeometry>
                </mxCell>
                <mxCell id="408" value="cout &amp;lt;&amp;lt; a[i][j] &amp;lt;&amp;lt; &quot; &quot;;" style="shape=parallelogram;perimeter=parallelogramPerimeter;whiteSpace=wrap;html=1;fixedSize=1;" vertex="1" parent="1">
                    <mxGeometry x="265" y="1300" width="220" height="40" as="geometry"/>
                </mxCell>
                <mxCell id="415" value="1" style="edgeStyle=orthogonalEdgeStyle;rounded=0;html=1;" edge="1" parent="1" source="412" target="414">
                    <mxGeometry relative="1" as="geometry"/>
                </mxCell>
                <mxCell id="428" value="0" style="edgeStyle=orthogonalEdgeStyle;rounded=0;html=1;" edge="1" parent="1" source="412" target="425">
                    <mxGeometry x="-0.8705" relative="1" as="geometry">
                        <Array as="points">
                            <mxPoint x="570" y="1465"/>
                            <mxPoint x="570" y="1820"/>
                            <mxPoint x="375" y="1820"/>
                        </Array>
                        <mxPoint as="offset"/>
                    </mxGeometry>
                </mxCell>
                <mxCell id="412" value="for (int i = 1; i &amp;lt; n; i++)" style="shape=hexagon;perimeter=hexagonPerimeter2;whiteSpace=wrap;html=1;fixedSize=1;" vertex="1" parent="1">
                    <mxGeometry x="295" y="1440" width="160" height="50" as="geometry"/>
                </mxCell>
                <mxCell id="419" value="1" style="edgeStyle=orthogonalEdgeStyle;rounded=0;html=1;" edge="1" parent="1" source="414" target="417">
                    <mxGeometry relative="1" as="geometry">
                        <Array as="points">
                            <mxPoint x="200" y="1565"/>
                        </Array>
                    </mxGeometry>
                </mxCell>
                <mxCell id="423" value="0" style="edgeStyle=orthogonalEdgeStyle;rounded=0;html=1;" edge="1" parent="1" source="414">
                    <mxGeometry x="-0.8443" relative="1" as="geometry">
                        <mxPoint x="380" y="1760" as="targetPoint"/>
                        <Array as="points">
                            <mxPoint x="530" y="1565"/>
                            <mxPoint x="530" y="1760"/>
                        </Array>
                        <mxPoint as="offset"/>
                    </mxGeometry>
                </mxCell>
                <mxCell id="414" value="if (a[i][2] &amp;lt; a[i - 1][2])" style="rhombus;whiteSpace=wrap;html=1;" vertex="1" parent="1">
                    <mxGeometry x="292.5" y="1530" width="165" height="70" as="geometry"/>
                </mxCell>
                <mxCell id="421" value="" style="edgeStyle=orthogonalEdgeStyle;rounded=0;html=1;" edge="1" parent="1" source="417" target="420">
                    <mxGeometry relative="1" as="geometry"/>
                </mxCell>
                <mxCell id="417" value="obmen(a, m, i, i - 1);" style="verticalLabelPosition=middle;verticalAlign=middle;html=1;shape=process;whiteSpace=wrap;rounded=0;size=0.06666666666666667;arcSize=6;labelPosition=center;align=center;" vertex="1" parent="1">
                    <mxGeometry x="130" y="1600" width="150" height="60" as="geometry"/>
                </mxCell>
                <mxCell id="422" style="edgeStyle=orthogonalEdgeStyle;rounded=0;html=1;" edge="1" parent="1" source="420">
                    <mxGeometry relative="1" as="geometry">
                        <mxPoint x="380" y="1760" as="targetPoint"/>
                        <Array as="points">
                            <mxPoint x="205" y="1760"/>
                            <mxPoint x="370" y="1760"/>
                        </Array>
                    </mxGeometry>
                </mxCell>
                <mxCell id="420" value="i = 0;" style="rounded=0;whiteSpace=wrap;html=1;" vertex="1" parent="1">
                    <mxGeometry x="145" y="1690" width="120" height="40" as="geometry"/>
                </mxCell>
                <mxCell id="424" value="" style="endArrow=classic;html=1;rounded=0;entryX=0;entryY=0.56;entryDx=0;entryDy=0;entryPerimeter=0;" edge="1" parent="1" target="412">
                    <mxGeometry width="50" height="50" relative="1" as="geometry">
                        <mxPoint x="380" y="1760" as="sourcePoint"/>
                        <mxPoint x="400" y="1600" as="targetPoint"/>
                        <Array as="points">
                            <mxPoint x="380" y="1800"/>
                            <mxPoint x="100" y="1800"/>
                            <mxPoint x="100" y="1468"/>
                        </Array>
                    </mxGeometry>
                </mxCell>
                <mxCell id="427" value="" style="edgeStyle=orthogonalEdgeStyle;rounded=0;html=1;" edge="1" parent="1" source="425" target="426">
                    <mxGeometry relative="1" as="geometry"/>
                </mxCell>
                <mxCell id="425" value="cout &lt;&lt; endl;" style="shape=parallelogram;perimeter=parallelogramPerimeter;whiteSpace=wrap;html=1;fixedSize=1;" vertex="1" parent="1">
                    <mxGeometry x="265" y="1850" width="220" height="40" as="geometry"/>
                </mxCell>
                <mxCell id="430" value="" style="edgeStyle=orthogonalEdgeStyle;rounded=0;html=1;" edge="1" parent="1" source="426" target="429">
                    <mxGeometry relative="1" as="geometry"/>
                </mxCell>
                <mxCell id="426" value="cout &amp;lt;&amp;lt; &quot;End:&quot;;" style="shape=parallelogram;perimeter=parallelogramPerimeter;whiteSpace=wrap;html=1;fixedSize=1;" vertex="1" parent="1">
                    <mxGeometry x="265" y="1920" width="220" height="40" as="geometry"/>
                </mxCell>
                <mxCell id="432" value="1" style="edgeStyle=orthogonalEdgeStyle;rounded=0;html=1;" edge="1" parent="1" source="429" target="431">
                    <mxGeometry relative="1" as="geometry"/>
                </mxCell>
                <mxCell id="442" value="0" style="edgeStyle=orthogonalEdgeStyle;rounded=0;html=1;" edge="1" parent="1" source="429" target="439">
                    <mxGeometry x="-0.9213" relative="1" as="geometry">
                        <Array as="points">
                            <mxPoint x="550" y="2025"/>
                            <mxPoint x="550" y="2370"/>
                            <mxPoint x="375" y="2370"/>
                        </Array>
                        <mxPoint as="offset"/>
                    </mxGeometry>
                </mxCell>
                <mxCell id="429" value="for (int i = 0; i &amp;lt; n; i++)" style="shape=hexagon;perimeter=hexagonPerimeter2;whiteSpace=wrap;html=1;fixedSize=1;" vertex="1" parent="1">
                    <mxGeometry x="295" y="2000" width="160" height="50" as="geometry"/>
                </mxCell>
                <mxCell id="434" value="" style="edgeStyle=orthogonalEdgeStyle;rounded=0;html=1;" edge="1" parent="1" source="431" target="433">
                    <mxGeometry relative="1" as="geometry"/>
                </mxCell>
                <mxCell id="431" value="cout &lt;&lt; endl;" style="shape=parallelogram;perimeter=parallelogramPerimeter;whiteSpace=wrap;html=1;fixedSize=1;" vertex="1" parent="1">
                    <mxGeometry x="265" y="2090" width="220" height="40" as="geometry"/>
                </mxCell>
                <mxCell id="436" value="1" style="edgeStyle=orthogonalEdgeStyle;rounded=0;html=1;" edge="1" parent="1" source="433" target="435">
                    <mxGeometry relative="1" as="geometry"/>
                </mxCell>
                <mxCell id="438" value="0" style="edgeStyle=orthogonalEdgeStyle;rounded=0;html=1;entryX=0.004;entryY=0.538;entryDx=0;entryDy=0;entryPerimeter=0;" edge="1" parent="1" source="433" target="429">
                    <mxGeometry x="-0.9484" relative="1" as="geometry">
                        <Array as="points">
                            <mxPoint x="520" y="2185"/>
                            <mxPoint x="520" y="2350"/>
                            <mxPoint x="200" y="2350"/>
                            <mxPoint x="200" y="2027"/>
                        </Array>
                        <mxPoint as="offset"/>
                    </mxGeometry>
                </mxCell>
                <mxCell id="433" value="for (int j = 0; j &amp;lt; m; j++)" style="shape=hexagon;perimeter=hexagonPerimeter2;whiteSpace=wrap;html=1;fixedSize=1;" vertex="1" parent="1">
                    <mxGeometry x="295" y="2160" width="160" height="50" as="geometry"/>
                </mxCell>
                <mxCell id="437" style="edgeStyle=orthogonalEdgeStyle;rounded=0;html=1;entryX=0.01;entryY=0.443;entryDx=0;entryDy=0;entryPerimeter=0;" edge="1" parent="1" source="435" target="433">
                    <mxGeometry relative="1" as="geometry">
                        <Array as="points">
                            <mxPoint x="375" y="2320"/>
                            <mxPoint x="230" y="2320"/>
                            <mxPoint x="230" y="2182"/>
                        </Array>
                    </mxGeometry>
                </mxCell>
                <mxCell id="435" value="cout &amp;lt;&amp;lt; a[i][j] &amp;lt;&amp;lt; &quot; &quot;;" style="shape=parallelogram;perimeter=parallelogramPerimeter;whiteSpace=wrap;html=1;fixedSize=1;" vertex="1" parent="1">
                    <mxGeometry x="265" y="2250" width="220" height="40" as="geometry"/>
                </mxCell>
                <mxCell id="444" value="1" style="edgeStyle=orthogonalEdgeStyle;rounded=0;html=1;" edge="1" parent="1" source="439" target="443">
                    <mxGeometry relative="1" as="geometry"/>
                </mxCell>
                <mxCell id="447" value="0" style="edgeStyle=orthogonalEdgeStyle;rounded=0;html=1;" edge="1" parent="1" source="439" target="446">
                    <mxGeometry x="-0.8306" relative="1" as="geometry">
                        <Array as="points">
                            <mxPoint x="490" y="2415"/>
                            <mxPoint x="490" y="2540"/>
                            <mxPoint x="375" y="2540"/>
                        </Array>
                        <mxPoint as="offset"/>
                    </mxGeometry>
                </mxCell>
                <mxCell id="439" value="for (int i = 0; i &amp;lt; n; i++)" style="shape=hexagon;perimeter=hexagonPerimeter2;whiteSpace=wrap;html=1;fixedSize=1;" vertex="1" parent="1">
                    <mxGeometry x="295" y="2390" width="160" height="50" as="geometry"/>
                </mxCell>
                <mxCell id="445" style="edgeStyle=orthogonalEdgeStyle;rounded=0;html=1;entryX=0.004;entryY=0.49;entryDx=0;entryDy=0;entryPerimeter=0;" edge="1" parent="1" source="443" target="439">
                    <mxGeometry relative="1" as="geometry">
                        <Array as="points">
                            <mxPoint x="375" y="2530"/>
                            <mxPoint x="260" y="2530"/>
                            <mxPoint x="260" y="2415"/>
                        </Array>
                    </mxGeometry>
                </mxCell>
                <mxCell id="443" value="delete[]a[i];" style="rounded=0;whiteSpace=wrap;html=1;" vertex="1" parent="1">
                    <mxGeometry x="315" y="2470" width="120" height="40" as="geometry"/>
                </mxCell>
                <mxCell id="446" value="delete[]a;" style="rounded=0;whiteSpace=wrap;html=1;" vertex="1" parent="1">
                    <mxGeometry x="315" y="2560" width="120" height="40" as="geometry"/>
                </mxCell>
                <mxCell id="453" style="edgeStyle=orthogonalEdgeStyle;rounded=0;html=1;entryX=0.511;entryY=0.032;entryDx=0;entryDy=0;entryPerimeter=0;" edge="1" parent="1" source="449" target="450">
                    <mxGeometry relative="1" as="geometry"/>
                </mxCell>
                <mxCell id="449" value="arr[str1][i] = arr[str2][i];" style="rounded=0;whiteSpace=wrap;html=1;" vertex="1" parent="1">
                    <mxGeometry x="768.5" y="480" width="157" height="50" as="geometry"/>
                </mxCell>
                <mxCell id="450" value="arr[str2][i] = tmp;" style="rounded=0;whiteSpace=wrap;html=1;" vertex="1" parent="1">
                    <mxGeometry x="767" y="550" width="157" height="50" as="geometry"/>
                </mxCell>
            </root>
        </mxGraphModel>
    </diagram>
</mxfile>